<svg viewBox="0 0 512 512" xmlns="http://www.w3.org/2000/svg">
<defs><linearGradient id="g" x1="0" y1="0" x2="1" y2="1">
  <stop offset="0" stop-color="#f9a8d4"/><stop offset="1" stop-color="#c084fc"/>
</linearGradient></defs>
<rect width="512" height="512" rx="110" fill="url(#g)"/>
<g transform="translate(250,282)">
  <polygon points="-92,-88 -58,-170 -26,-98" fill="#c8863f"/>
  <polygon points="-72,-98 -56,-146 -40,-102" fill="#e9c391"/>
  <polygon points="-18,-100 16,-174 46,-92" fill="#c8863f"/>
  <polygon points="0,-108 16,-152 30,-104" fill="#e9c391"/>
  <circle cx="0" cy="0" r="120" fill="#c8863f"/>
  <circle cx="-96" cy="-58" r="30" fill="#8a5a2b"/>
  <circle cx="-112" cy="-16" r="27" fill="#8a5a2b"/>
  <circle cx="-114" cy="26" r="25" fill="#8a5a2b"/>
  <circle cx="-56" cy="-104" r="30" fill="#8a5a2b"/>
  <circle cx="-14" cy="-118" r="27" fill="#8a5a2b"/>
  <ellipse cx="62" cy="36" rx="64" ry="50" fill="#e9c391"/>
  <circle cx="84" cy="46" r="9" fill="#7c4a12"/>
  <circle cx="26" cy="-24" r="16" fill="#3f2d20"/>
  <circle cx="32" cy="-30" r="5" fill="#ffffff"/>
</g>
<path d="M 402 84 l 15 36 36 15 -36 15 -15 36 -15 -36 -36 -15 36 -15 z" fill="#fde047" stroke="#f59e0b" stroke-width="6"/>
</svg>